HIERARCHY
ROOT Hips
{
	OFFSET 0.00 0.00 0.00
	CHANNELS 6 Xposition Yposition Zposition Xrotation Yrotation Zrotation
	JOINT Spine
	{
		OFFSET 0.00000 1.66264 2.49395
		CHANNELS 3 Xrotation Yrotation Zrotation
		JOINT Spine1
		{
			OFFSET 0.00000 0.57743 3.27475
			CHANNELS 3 Xrotation Yrotation Zrotation
			JOINT Spine2
			{
				OFFSET 0.00000 0.28982 3.31262
				CHANNELS 3 Xrotation Yrotation Zrotation
				JOINT Spine3
				{
					OFFSET 0.00000 0.00000 3.32527
					CHANNELS 3 Xrotation Yrotation Zrotation
					JOINT Neck
					{
						OFFSET 0.00000 -1.24697 8.72884
						CHANNELS 3 Xrotation Yrotation Zrotation
						JOINT Head
						{
							OFFSET 0.00000 -0.79396 4.50279
							CHANNELS 3 Xrotation Yrotation Zrotation
							End Site
							{
								OFFSET 0.00000 0.00001 5.38279
							}
						}
					}
					JOINT RightShoulder
					{
						OFFSET -1.14808 -1.91346 6.19963
						CHANNELS 3 Xrotation Yrotation Zrotation
						JOINT RightArm
						{
							OFFSET -5.70212 0.00000 0.00000
							CHANNELS 3 Xrotation Yrotation Zrotation
							JOINT RightForeArm
							{
								OFFSET -10.82477 0.00000 0.00000
								CHANNELS 3 Xrotation Yrotation Zrotation
								JOINT RightHand
								{
									OFFSET -10.02856 0.00000 0.00000
									CHANNELS 3 Xrotation Yrotation Zrotation
									JOINT RightHandEnd
									{
										OFFSET -2.68345 0.00000 0.00000
										CHANNELS 3 Xrotation Yrotation Zrotation
										End Site
										{
											OFFSET -2.68345 0.00000 0.00000
										}
									}
									JOINT RightHandThumb1
									{
										OFFSET -1.07338 -1.78897 -0.71559
										CHANNELS 3 Yrotation Xrotation Zrotation
										End Site
										{
											OFFSET -2.59202 -0.69453 0.00000
										}
									}
								}
							}
						}
					}
					JOINT LeftShoulder
					{
						OFFSET 1.14808 -1.91346 6.19963
						CHANNELS 3 Xrotation Yrotation Zrotation
						JOINT LeftArm
						{
							OFFSET 5.70212 0.00000 0.00000
							CHANNELS 3 Xrotation Yrotation Zrotation
							JOINT LeftForeArm
							{
								OFFSET 10.82477 0.00000 0.00000
								CHANNELS 3 Xrotation Yrotation Zrotation
								JOINT LeftHand
								{
									OFFSET 10.02856 0.00000 0.00000
									CHANNELS 3 Xrotation Yrotation Zrotation
									JOINT LeftHandEnd
									{
										OFFSET 2.68345 0.00000 0.00000
										CHANNELS 3 Xrotation Yrotation Zrotation
										End Site
										{
											OFFSET 2.68345 0.00000 0.00000
										}
									}
									JOINT LeftHandThumb1
									{
										OFFSET 1.07338 -1.78897 -0.71559
										CHANNELS 3 Yrotation Xrotation Zrotation
										End Site
										{
											OFFSET 2.59202 -0.69453 0.00000
										}
									}
								}
							}
						}
					}
				}
			}
		}
	}
	JOINT RightUpLeg
	{
		OFFSET -3.40597 0.00000 -0.99500
		CHANNELS 3 Xrotation Yrotation Zrotation
		JOINT RightLeg
		{
			OFFSET 0.00001 0.00000 -17.05191
			CHANNELS 3 Xrotation Yrotation Zrotation
			JOINT RightFoot
			{
				OFFSET 0.00001 0.00000 -15.93260
				CHANNELS 3 Xrotation Yrotation Zrotation
				JOINT RightToeBase
				{
					OFFSET 0.00000 -4.98016 -1.81263
					CHANNELS 3 Xrotation Yrotation Zrotation
					End Site
					{
						OFFSET 0.00000 -2.75539 -0.00000
					}
				}
			}
		}
	}
	JOINT LeftUpLeg
	{
		OFFSET 3.40597 0.00000 -0.99500
		CHANNELS 3 Xrotation Yrotation Zrotation
		JOINT LeftLeg
		{
			OFFSET 0.00001 0.00000 -17.05191
			CHANNELS 3 Xrotation Yrotation Zrotation
			JOINT LeftFoot
			{
				OFFSET 0.00001 0.00000 -15.93260
				CHANNELS 3 Xrotation Yrotation Zrotation
				JOINT LeftToeBase
				{
					OFFSET 0.00000 -4.98016 -1.81263
					CHANNELS 3 Xrotation Yrotation Zrotation
					End Site
					{
						OFFSET 0.00000 -2.75539 -0.00000
					}
				}
			}
		}
	}
}
MOTION
Frames: 7
Frame Time: 0.008342
 8.8213 -108.7720 35.4322 -4.2183 0.5317 179.2015 -1.2594 0.2031 -0.2699 -0.8127 -0.1715 0.0084 -0.3591 -0.0511 1.3022 0.4659 -0.3086 0.2543 2.8397 -0.2639 3.2816 -2.1435 3.6125 4.1321 -1.6538 10.5501 -0.5364 -30.4483 -12.0097 -12.2058 0.0000 0.0000 26.3682 -9.0522 26.6765 -1.5769 -0.0000 -0.0000 0.0000 -0.0000 -0.0000 0.0000 3.7570 -7.6665 2.3614 -19.9210 15.7935 -0.5318 -0.0000 -0.0000 -16.4026 -8.9653 -25.8459 1.8023 0.0000 0.0000 0.0000 0.0000 0.0000 -0.0000 -6.6534 3.0106 -34.0537 3.2397 0.0000 0.0000 -3.2976 2.7742 0.1684 1.2300 0.0000 0.0000 -4.2614 1.5049 27.0108 -2.8910 0.0000 -0.0000 0.3793 5.8424 11.8721 0.0866 0.0000 0.0000
 8.8264 -108.7790 35.4324 -4.2432 0.5287 179.2069 -1.2565 0.2006 -0.2684 -0.8135 -0.1693 0.0104 -0.3677 -0.0565 1.2949 0.4637 -0.3108 0.2573 2.8299 -0.2767 3.2752 -2.1504 3.6081 4.1299 -1.6486 10.5517 -0.5319 -30.4595 -12.0022 -12.2120 0.0000 0.0000 26.3866 -9.0506 26.6801 -1.5736 0.0000 0.0000 0.0000 -0.0000 0.0000 0.0000 3.7609 -7.6684 2.3585 -19.9363 15.7945 -0.5232 -0.0000 -0.0000 -16.4192 -8.9757 -25.8488 1.7979 0.0000 -0.0000 -0.0000 -0.0000 -0.0000 0.0000 -6.6805 2.9938 -34.0620 3.2175 0.0000 0.0000 -3.2825 2.7717 0.1724 1.2321 0.0000 0.0000 -4.2982 1.4927 26.9933 -2.8927 0.0000 -0.0000 0.3932 5.8514 11.8807 0.0900 0.0000 0.0000
 8.8330 -108.7892 35.4325 -4.2911 0.5250 179.2154 -1.2682 0.1986 -0.2665 -0.8142 -0.1701 0.0097 -0.3767 -0.0607 1.2908 0.4602 -0.3135 0.2594 2.8148 -0.2944 3.2668 -2.1567 3.6036 4.1272 -1.6422 10.5521 -0.5293 -30.4736 -11.9924 -12.2177 0.0000 0.0000 26.4092 -9.0489 26.6815 -1.5696 0.0000 0.0000 0.0000 -0.0000 0.0000 -0.0000 3.7639 -7.6698 2.3537 -19.9499 15.7927 -0.5162 -0.0000 -0.0000 -16.4366 -8.9845 -25.8501 1.7937 0.0000 0.0000 0.0000 0.0000 0.0000 0.0000 -6.7352 2.9731 -34.0716 3.1937 0.0000 0.0000 -3.2636 2.7707 0.1753 1.2341 0.0000 0.0000 -4.3661 1.4756 26.9681 -2.8893 0.0000 -0.0000 0.4100 5.8599 11.8934 0.0940 0.0000 0.0000
 8.8411 -108.8008 35.4327 -4.3370 0.5199 179.2266 -1.2721 0.1962 -0.2643 -0.8140 -0.1698 0.0096 -0.3870 -0.0676 1.2860 0.4567 -0.3164 0.2611 2.7969 -0.3164 3.2567 -2.1668 3.5988 4.1245 -1.6344 10.5567 -0.5282 -30.4872 -11.9844 -12.2247 0.0000 0.0000 26.4336 -9.0490 26.6812 -1.5644 0.0000 -0.0000 -0.0000 0.0000 0.0000 0.0000 3.7664 -7.6749 2.3463 -19.9591 15.7920 -0.5087 -0.0000 -0.0000 -16.4545 -8.9857 -25.8485 1.7931 -0.0000 0.0000 -0.0000 0.0000 -0.0000 0.0000 -6.7868 2.9471 -34.0866 3.1624 0.0000 0.0000 -3.2408 2.7689 0.1812 1.2365 0.0000 0.0000 -4.4333 1.4551 26.9372 -2.8885 0.0000 -0.0000 0.4313 5.8715 11.9082 0.0991 0.0000 0.0000
 8.8506 -108.8141 35.4329 -4.3896 0.5138 179.2404 -1.2764 0.1933 -0.2617 -0.8139 -0.1696 0.0096 -0.3977 -0.0751 1.2806 0.4530 -0.3199 0.2630 2.7759 -0.3424 3.2455 -2.1794 3.5943 4.1216 -1.6254 10.5635 -0.5294 -30.5004 -11.9771 -12.2314 0.0000 0.0000 26.4586 -9.0496 26.6780 -1.5601 0.0000 0.0000 -0.0000 0.0000 0.0000 0.0000 3.7684 -7.6820 2.3361 -19.9635 15.7900 -0.5023 -0.0000 -0.0000 -16.4711 -8.9788 -25.8430 1.7962 0.0000 -0.0000 -0.0000 -0.0000 0.0000 -0.0000 -6.8462 2.9168 -34.1042 3.1274 0.0000 0.0000 -3.2147 2.7677 0.1873 1.2391 0.0000 0.0000 -4.5108 1.4309 26.9006 -2.8871 0.0000 -0.0000 0.4558 5.8842 11.9255 0.1053 0.0000 0.0000
 8.8612 -108.8287 35.4331 -4.4463 0.5066 179.2569 -1.2803 0.1899 -0.2589 -0.8134 -0.1689 0.0095 -0.4084 -0.0833 1.2745 0.4492 -0.3242 0.2649 2.7530 -0.3720 3.2332 -2.1953 3.5904 4.1190 -1.6156 10.5731 -0.5329 -30.5127 -11.9709 -12.2383 0.0000 0.0000 26.4830 -9.0479 26.6723 -1.5571 -0.0000 -0.0000 -0.0000 -0.0000 0.0000 0.0000 3.7699 -7.6915 2.3234 -19.9613 15.7871 -0.4978 -0.0000 -0.0000 -16.4849 -8.9616 -25.8323 1.8042 -0.0000 0.0000 -0.0000 -0.0000 -0.0000 0.0000 -6.9106 2.8831 -34.1250 3.0895 0.0000 0.0000 -3.1863 2.7676 0.1940 1.2418 0.0000 0.0000 -4.5950 1.4039 26.8600 -2.8855 0.0000 -0.0000 0.4830 5.8985 11.9438 0.1115 0.0000 0.0000
 8.8727 -108.8442 35.4333 -4.5049 0.4987 179.2761 -1.2837 0.1860 -0.2564 -0.8129 -0.1680 0.0095 -0.4175 -0.0921 1.2679 0.4453 -0.3276 0.2675 2.7291 -0.4050 3.2199 -2.2144 3.5876 4.1172 -1.6055 10.5856 -0.5380 -30.5237 -11.9665 -12.2470 0.0000 0.0000 26.5059 -9.0462 26.6642 -1.5562 0.0000 -0.0000 0.0000 0.0000 -0.0000 0.0000 3.7705 -7.7034 2.3089 -19.9505 15.7826 -0.4978 -0.0000 -0.0000 -16.4939 -8.9348 -25.8176 1.8186 0.0000 0.0000 -0.0000 0.0000 -0.0000 0.0000 -6.9777 2.8472 -34.1472 3.0505 0.0000 0.0000 -3.1568 2.7687 0.1997 1.2452 0.0000 0.0000 -4.6831 1.3748 26.8172 -2.8836 0.0000 -0.0000 0.5123 5.9138 11.9620 0.1183 0.0000 0.0000
